<svg width="68" height="95" viewBox="0 0 68 95" fill="none" xmlns="http://www.w3.org/2000/svg">
<g clip-path="url(#clip0)">
<path d="M64.9697 0H2.32971C1.04143 0 0 1.02822 0 2.30017V92.7074C0 93.9794 1.04143 95.0076 2.32971 95.0076H64.9697C66.258 95.0076 67.2994 93.9794 67.2994 92.7074V2.30017C67.2917 1.02822 66.2502 0 64.9697 0Z" fill="url(#paint0_linear)"/>
<path d="M60.858 4.09766H6.43371C5.184 4.09766 4.16571 5.10303 4.16571 6.34451V81.0923C4.16571 82.3338 5.184 83.3316 6.43371 83.3316H60.858C62.1154 83.3316 63.126 82.3262 63.126 81.0923V6.34451C63.126 5.10303 62.1154 4.09766 60.858 4.09766Z" fill="white"/>
<path d="M44.7737 39.6361H22.5257C21.5074 39.6361 20.682 38.8211 20.682 37.8158V15.8423C20.682 14.8369 21.5074 14.022 22.5257 14.022H44.7737C45.792 14.022 46.6174 14.8369 46.6174 15.8423V37.8081C46.6174 38.8135 45.792 39.6361 44.7737 39.6361Z" fill="url(#paint1_linear)"/>
<path d="M33.6497 92.5476C35.5413 92.5476 37.0748 91.0335 37.0748 89.1659C37.0748 87.2982 35.5413 85.7842 33.6497 85.7842C31.758 85.7842 30.2245 87.2982 30.2245 89.1659C30.2245 91.0335 31.758 92.5476 33.6497 92.5476Z" fill="white"/>
<path d="M53.0357 51.0149H14.256C13.2763 51.0149 12.474 50.2228 12.474 49.2555C12.474 48.2882 13.2763 47.4961 14.256 47.4961H53.028C54.0077 47.4961 54.81 48.2882 54.81 49.2555C54.81 50.2228 54.0154 51.0149 53.0357 51.0149Z" fill="url(#paint2_linear)"/>
<path opacity="0.6" d="M46.4708 60.7639H13.608C12.9831 60.7639 12.4817 60.2612 12.4817 59.6518V59.53C12.4817 58.913 12.9908 58.418 13.608 58.418H46.4708C47.0957 58.418 47.5971 58.9207 47.5971 59.53V59.6518C47.6048 60.2612 47.0957 60.7639 46.4708 60.7639Z" fill="url(#paint3_linear)"/>
<path opacity="0.3" d="M40.2146 66.9563H13.5C12.9369 66.9563 12.474 66.4993 12.474 65.9433V65.6082C12.474 65.0522 12.9369 64.5952 13.5 64.5952H40.2068C40.77 64.5952 41.2328 65.0522 41.2328 65.6082V65.9433C41.2328 66.4993 40.77 66.9563 40.2146 66.9563Z" fill="url(#paint4_linear)"/>
<path opacity="0.6" d="M43.578 72.6916H13.5617C12.9677 72.6916 12.4817 72.2117 12.4817 71.6253V71.412C12.4817 70.8255 12.9677 70.3457 13.5617 70.3457H43.578C44.172 70.3457 44.658 70.8255 44.658 71.412V71.6253C44.658 72.2041 44.172 72.6916 43.578 72.6916Z" fill="url(#paint5_linear)"/>
<path d="M33.7166 26.1206C35.9442 26.1206 37.7499 24.3139 37.7499 22.0852C37.7499 19.8564 35.9442 18.0498 33.7166 18.0498C31.489 18.0498 29.6833 19.8564 29.6833 22.0852C29.6833 24.3139 31.4806 26.1206 33.7166 26.1206ZM33.7166 28.1383C31.0249 28.1383 25.65 29.489 25.65 32.1737V33.1867C25.65 33.7439 26.1057 34.1998 26.6626 34.1998H40.7875C41.3444 34.1998 41.8 33.7439 41.8 33.1867V32.1737C41.7831 29.4975 36.4083 28.1383 33.7166 28.1383Z" fill="white"/>
</g>
<defs>
<linearGradient id="paint0_linear" x1="4.07698" y1="45.0301" x2="67.3445" y2="50.4539" gradientUnits="userSpaceOnUse">
<stop stop-color="#6CBCFC"/>
<stop offset="1" stop-color="#458DFC"/>
</linearGradient>
<linearGradient id="paint1_linear" x1="18.6708" y1="19.2924" x2="48.4655" y2="34.6686" gradientUnits="userSpaceOnUse">
<stop stop-color="#B0F4FF"/>
<stop offset="0.0856277" stop-color="#A3F0FE"/>
<stop offset="0.2972" stop-color="#8AE7FD"/>
<stop offset="0.5161" stop-color="#77E1FD"/>
<stop offset="0.7451" stop-color="#6DDDFC"/>
<stop offset="1" stop-color="#69DCFC"/>
</linearGradient>
<linearGradient id="paint2_linear" x1="54.8137" y1="49.2569" x2="12.4813" y2="49.2569" gradientUnits="userSpaceOnUse">
<stop stop-color="#6CBCFC"/>
<stop offset="1" stop-color="#458DFC"/>
</linearGradient>
<linearGradient id="paint3_linear" x1="47.6026" y1="59.5875" x2="12.4812" y2="59.5875" gradientUnits="userSpaceOnUse">
<stop stop-color="#6CBCFC"/>
<stop offset="1" stop-color="#458DFC"/>
</linearGradient>
<linearGradient id="paint4_linear" x1="41.2336" y1="65.78" x2="12.4813" y2="65.78" gradientUnits="userSpaceOnUse">
<stop stop-color="#6CBCFC"/>
<stop offset="1" stop-color="#458DFC"/>
</linearGradient>
<linearGradient id="paint5_linear" x1="44.6573" y1="71.5125" x2="12.4813" y2="71.5125" gradientUnits="userSpaceOnUse">
<stop stop-color="#6CBCFC"/>
<stop offset="1" stop-color="#458DFC"/>
</linearGradient>
<clipPath id="clip0">
<rect width="67.2917" height="95" fill="white"/>
</clipPath>
</defs>
</svg>
