<svg width="68" height="95" viewBox="0 0 68 95" fill="none" xmlns="http://www.w3.org/2000/svg">
<g clip-path="url(#clip0)">
<path d="M67.0754 90.4479C67.0754 92.927 65.069 94.9417 62.5899 94.9417L4.58501 95.0081C2.61171 95.0081 0.9369 93.7395 0.331646 91.9735C0.174114 91.5175 0.0912027 91.0366 0.0912027 90.5308L0 6.88142C0 4.40237 2.00646 2.38762 4.48551 2.38762L57.7479 2.32958L62.4904 2.32129C64.9695 2.32129 66.9842 4.32775 66.9842 6.8068L67.0754 90.4479Z" fill="url(#paint0_linear)"/>
<path d="M61.0643 89.9674L6.10228 90.0255C4.7674 90.0255 3.68956 88.9476 3.68956 87.6128L3.60664 9.76715C3.60664 8.43227 4.68449 7.35442 6.01937 7.35442L60.9731 7.29639C62.308 7.29639 63.3858 8.37424 63.3858 9.70911L63.4688 87.5547C63.477 88.8813 62.3992 89.9674 61.0643 89.9674Z" fill="white"/>
<path d="M53.3453 13.7137L13.2575 13.7634C11.9309 13.7634 10.8448 12.6856 10.8448 11.359L10.8365 4.67635C10.8365 3.34976 11.9144 2.26362 13.241 2.26362L53.337 2.22217C54.6635 2.22217 55.7497 3.30002 55.7497 4.6266L55.758 11.3093C55.7497 12.6359 54.6718 13.7137 53.3453 13.7137ZM13.241 3.49071C12.5942 3.49071 12.0636 4.02135 12.0636 4.66806L12.0719 11.3507C12.0719 11.9974 12.6025 12.5281 13.2492 12.5281L53.3453 12.4866C53.992 12.4866 54.5226 11.956 54.5226 11.3093L54.5143 4.6266C54.5143 3.97989 53.9837 3.44926 53.337 3.44926L13.241 3.49071Z" fill="url(#paint1_linear)"/>
<path d="M52.2094 5.11564L14.7748 5.1571C14.3603 5.1571 14.0286 4.82545 14.0286 4.41089V0.787659C14.0286 0.373102 14.3603 0.0414557 14.7748 0.0414557L52.2011 0C52.6156 0 52.9473 0.331646 52.9473 0.746203V4.36944C52.9556 4.78399 52.6239 5.11564 52.2094 5.11564Z" fill="url(#paint2_linear)"/>
<path d="M14.808 5.15714L52.1762 5.11568C52.6074 5.11568 52.9556 4.76746 52.9556 4.33632V2.56201L14.0203 2.60347V4.37777C14.0203 4.80891 14.3769 5.15714 14.808 5.15714Z" fill="#58D6F4"/>
<path d="M27.9412 81.2116L24.7076 61.6445L22.0876 70.1595L14.5924 70.1678C14.1364 70.1678 13.7716 69.803 13.7716 69.347C13.7716 68.891 14.1364 68.5262 14.5924 68.5262L20.8854 68.5179L25.2051 54.4976L28.4387 74.1144L32.634 60.6413L34.8643 67.0255L39.8887 54.8458L44.7722 74.1642L46.6129 68.0204L52.0021 68.0121C52.4581 68.0121 52.8229 68.3769 52.8229 68.833C52.8229 69.289 52.4581 69.6538 52.0021 69.6538L47.8317 69.6621L44.6396 80.3162L39.5156 60.0526L34.7316 71.6354L32.7169 65.873L27.9412 81.2116Z" fill="#58D6F4"/>
<path d="M22.3861 43.4869L11.848 43.4952C10.1483 43.4952 8.75543 42.1106 8.75543 40.4109L8.73885 25.6776C8.73885 23.9779 10.1235 22.585 11.8232 22.585L22.3612 22.5767C24.0609 22.5767 25.4538 23.9613 25.4538 25.661L25.4704 40.3943C25.4704 42.094 24.0858 43.4787 22.3861 43.4869ZM11.8149 23.4804C10.6044 23.4804 9.626 24.467 9.626 25.6776L9.64258 40.4109C9.64258 41.6214 10.6292 42.5998 11.8397 42.5998L22.3778 42.5915C23.5883 42.5915 24.5667 41.6049 24.5667 40.3943L24.5501 25.661C24.5501 24.4505 23.5634 23.4721 22.3529 23.4721L11.8149 23.4804Z" fill="url(#paint3_linear)"/>
<path d="M17.1046 40.6596C22.0876 40.6513 23.6381 37.7742 23.6381 37.7742C23.4142 37.4923 23.1323 37.2436 22.7509 36.9949C21.4409 36.1409 20.3879 35.7761 19.9485 35.4113C19.5008 35.0547 19.252 34.5324 19.252 34.5324L18.9784 34.6982C18.9784 34.6982 18.8126 34.1261 18.9038 33.2556C18.9038 33.2556 19.2935 33.1561 19.5837 31.8378C20.048 31.929 20.5952 30.7516 20.3382 30.3205C20.1724 30.0386 19.9734 30.0635 19.8324 30.1298C19.9734 29.5411 20.6118 26.2827 17.0963 26.2827C13.5809 26.2827 14.2193 29.5411 14.3686 30.1298C14.2276 30.0635 14.0286 30.0386 13.8628 30.3205C13.6058 30.7516 14.1613 31.929 14.6256 31.8378C14.9158 33.1561 15.3137 33.2473 15.3137 33.2473C15.4132 34.1096 15.2391 34.6899 15.2391 34.6899L14.9655 34.5241C14.9655 34.5241 14.7168 35.0382 14.2691 35.403C13.8213 35.7678 12.7767 36.1409 11.4667 36.9949C11.0853 37.2436 10.7951 37.4923 10.5795 37.7742C10.5712 37.7908 12.1299 40.6679 17.1046 40.6596Z" fill="url(#paint4_linear)"/>
<path d="M49.921 27.2781L29.6326 27.3029C29.2512 27.3029 28.9444 26.9962 28.9444 26.6148V26.4987C28.9444 26.1173 29.2512 25.8105 29.6326 25.8105L49.921 25.7856C50.3024 25.7856 50.6092 26.0924 50.6092 26.4738V26.5899C50.6092 26.9713 50.2941 27.2781 49.921 27.2781Z" fill="url(#paint5_linear)"/>
<path d="M42.459 31.1414L29.6326 31.1579C29.2512 31.1579 28.9444 30.8512 28.9444 30.4698V30.3537C28.9444 29.9723 29.2512 29.6655 29.6326 29.6655L42.459 29.6489C42.8404 29.6489 43.1472 29.9557 43.1472 30.3371V30.4532C43.1472 30.8346 42.8404 31.1414 42.459 31.1414Z" fill="url(#paint6_linear)"/>
<path opacity="0.6" d="M56.9187 35.7351L29.6409 35.7682C29.2595 35.7682 28.9527 35.4615 28.9527 35.0801V34.964C28.9527 34.5826 29.2595 34.2758 29.6409 34.2758L56.9187 34.2427C57.3001 34.2427 57.6069 34.5494 57.6069 34.9308V35.0469C57.5986 35.4283 57.2918 35.7351 56.9187 35.7351Z" fill="url(#paint7_linear)"/>
<path opacity="0.6" d="M56.3301 48.6443L10.8282 48.694C10.4386 48.694 10.1152 48.3789 10.1152 47.981V47.9146C10.1152 47.525 10.4303 47.2016 10.8282 47.2016L56.3301 47.1519C56.7198 47.1519 57.0431 47.4669 57.0431 47.8649V47.9312C57.0431 48.3292 56.7198 48.6443 56.3301 48.6443Z" fill="url(#paint8_linear)"/>
<path opacity="0.6" d="M56.9187 40.2453L29.6409 40.2785C29.2595 40.2785 28.9527 39.9717 28.9527 39.5903V39.4743C28.9527 39.0929 29.2595 38.7861 29.6409 38.7861L56.9187 38.7529C57.3001 38.7529 57.6069 39.0597 57.6069 39.4411V39.5572C57.6069 39.9386 57.3001 40.2453 56.9187 40.2453Z" fill="url(#paint9_linear)"/>
</g>
<defs>
<linearGradient id="paint0_linear" x1="-9.28868" y1="34.7477" x2="76.3641" y2="62.578" gradientUnits="userSpaceOnUse">
<stop stop-color="#6CBCFC"/>
<stop offset="0.1713" stop-color="#5EABFC"/>
<stop offset="0.4084" stop-color="#509AFC"/>
<stop offset="0.6698" stop-color="#4890FC"/>
<stop offset="1" stop-color="#458DFC"/>
</linearGradient>
<linearGradient id="paint1_linear" x1="-5.225" y1="-21.3748" x2="55.7514" y2="7.98985" gradientUnits="userSpaceOnUse">
<stop stop-color="#CFE9FF"/>
<stop offset="1" stop-color="#A1D6FB"/>
</linearGradient>
<linearGradient id="paint2_linear" x1="14.0191" y1="2.57952" x2="52.9549" y2="2.57952" gradientUnits="userSpaceOnUse">
<stop stop-color="#B0F4FF"/>
<stop offset="1" stop-color="#69DCFC"/>
</linearGradient>
<linearGradient id="paint3_linear" x1="14.1349" y1="29.2074" x2="23.9156" y2="41.8333" gradientUnits="userSpaceOnUse">
<stop stop-color="#6CBCFC"/>
<stop offset="1" stop-color="#458DFC"/>
</linearGradient>
<linearGradient id="paint4_linear" x1="13.0741" y1="30.0291" x2="22.8548" y2="42.655" gradientUnits="userSpaceOnUse">
<stop stop-color="#B0F4FF"/>
<stop offset="0.0994384" stop-color="#A1EFFE"/>
<stop offset="0.2994" stop-color="#88E7FD"/>
<stop offset="0.5095" stop-color="#77E1FD"/>
<stop offset="0.7344" stop-color="#6CDDFC"/>
<stop offset="1" stop-color="#69DCFC"/>
</linearGradient>
<linearGradient id="paint5_linear" x1="28.9456" y1="26.5511" x2="50.6048" y2="26.5641" gradientUnits="userSpaceOnUse">
<stop stop-color="#6CBCFC"/>
<stop offset="1" stop-color="#458DFC"/>
</linearGradient>
<linearGradient id="paint6_linear" x1="28.9495" y1="30.4034" x2="43.1463" y2="30.4034" gradientUnits="userSpaceOnUse">
<stop stop-color="#6CBCFC"/>
<stop offset="1" stop-color="#458DFC"/>
</linearGradient>
<linearGradient id="paint7_linear" x1="28.9542" y1="35.01" x2="57.6023" y2="35.01" gradientUnits="userSpaceOnUse">
<stop stop-color="#6CBCFC"/>
<stop offset="1" stop-color="#458DFC"/>
</linearGradient>
<linearGradient id="paint8_linear" x1="10.1148" y1="47.9273" x2="57.0408" y2="47.9273" gradientUnits="userSpaceOnUse">
<stop stop-color="#6CBCFC"/>
<stop offset="1" stop-color="#458DFC"/>
</linearGradient>
<linearGradient id="paint9_linear" x1="28.9588" y1="39.5192" x2="57.6069" y2="39.5192" gradientUnits="userSpaceOnUse">
<stop stop-color="#6CBCFC"/>
<stop offset="1" stop-color="#458DFC"/>
</linearGradient>
<clipPath id="clip0">
<rect width="67.0754" height="95" fill="white"/>
</clipPath>
</defs>
</svg>
