<svg width="80" height="72" viewBox="0 0 80 72" fill="none" xmlns="http://www.w3.org/2000/svg">
<g clip-path="url(#clip0)">
<path d="M66.4755 14.292H13.2584V71.4086H66.4755V14.292Z" fill="url(#paint0_linear)"/>
<path d="M13.0382 14.292C13.1024 14.292 13.1666 14.3195 13.2584 14.347C13.2584 33.3492 13.2584 52.3514 13.2584 71.3811C9.13864 71.7022 5.66117 70.6654 2.89939 68.0045C0.945037 66.1144 -2.56868e-05 63.894 -2.56868e-05 61.3799C-2.56868e-05 52.4798 -2.56868e-05 43.5889 -2.56868e-05 34.6888C-2.56868e-05 31.2939 -0.00920105 27.899 -0.00920105 24.5042C-0.00920105 20.4028 2.20206 17.4208 6.26675 15.4022C8.35873 14.3746 10.6801 14.2186 13.0382 14.292Z" fill="url(#paint1_linear)"/>
<path d="M57.1809 14.2828C59.5573 14.2828 59.7958 14.2828 62.1631 14.2828C62.1631 33.3492 62.1631 52.3514 62.1631 71.3903C46.0053 71.3903 33.7837 71.3903 17.5708 71.3903C17.5708 52.3606 17.5708 33.3584 17.5708 14.3012C19.9381 14.3012 20.4519 14.3012 22.865 14.3012C22.865 14.0626 22.865 13.8791 22.865 13.7048C22.865 11.6586 22.8742 9.60337 22.8558 7.55726C22.8375 6.12591 23.2228 4.87806 24.3422 3.90547C25.1313 3.22649 26.0397 2.87783 27.0673 2.87783C30.2512 2.86865 33.4258 2.86865 36.6097 2.86865C41.9589 2.86865 47.3173 2.87783 52.6666 2.86865C54.0704 2.86865 55.2357 3.32742 56.1532 4.39176C56.8872 5.24507 57.1625 6.24519 57.1625 7.36458C57.1533 9.52079 57.1625 11.677 57.1625 13.8332C57.1533 13.9525 57.1625 14.0901 57.1809 14.2828ZM28.6088 14.2828C28.829 14.2828 28.9941 14.2828 29.1593 14.2828C31.6917 14.2828 34.2333 14.2828 36.7657 14.2828C41.5002 14.2828 46.2438 14.2828 50.9783 14.292C51.3545 14.292 51.4371 14.1727 51.4371 13.8149C51.4187 12.2092 51.4371 10.6035 51.4371 8.99779C51.4371 8.86934 51.4187 8.74088 51.4004 8.60325C43.7848 8.60325 36.2152 8.60325 28.6088 8.60325C28.6088 10.4934 28.6088 12.3468 28.6088 14.2828Z" fill="white"/>
<mask id="mask0" mask-type="alpha" maskUnits="userSpaceOnUse" x="17" y="2" width="46" height="70">
<path d="M57.1808 14.2828C59.5573 14.2828 59.7958 14.2828 62.1631 14.2828C62.1631 33.3492 62.1631 52.3514 62.1631 71.3903C46.0053 71.3903 33.7837 71.3903 17.5708 71.3903C17.5708 52.3605 17.5708 33.3584 17.5708 14.3012C19.938 14.3012 20.4519 14.3012 22.865 14.3012C22.865 14.0626 22.865 13.8791 22.865 13.7048C22.865 11.6586 22.8742 9.60337 22.8558 7.55726C22.8375 6.12591 23.2228 4.87806 24.3422 3.90547C25.1313 3.22649 26.0397 2.87783 27.0673 2.87783C30.2512 2.86865 33.4258 2.86865 36.6097 2.86865C41.9589 2.86865 47.3173 2.87783 52.6666 2.86865C54.0704 2.86865 55.2357 3.32742 56.1532 4.39176C56.8872 5.24507 57.1625 6.24519 57.1625 7.36458C57.1533 9.52079 57.1625 11.677 57.1625 13.8332C57.1533 13.9525 57.1625 14.0901 57.1808 14.2828ZM28.6088 14.2828C28.829 14.2828 28.9941 14.2828 29.1593 14.2828C31.6917 14.2828 34.2333 14.2828 36.7657 14.2828C41.5002 14.2828 46.2438 14.2828 50.9783 14.292C51.3545 14.292 51.4371 14.1727 51.4371 13.8149C51.4187 12.2092 51.4371 10.6035 51.4371 8.99779C51.4371 8.86934 51.4187 8.74088 51.4004 8.60325C43.7848 8.60325 36.2151 8.60325 28.6088 8.60325C28.6088 10.4934 28.6088 12.3468 28.6088 14.2828Z" fill="#F7F9FC"/>
</mask>
<g mask="url(#mask0)">
<path d="M58.096 0.28125H21V14.3012H58.096V0.28125Z" fill="url(#paint2_linear)"/>
</g>
<path d="M80 24.3576C80 20.5773 77.9356 17.7605 74.2654 15.7144C72.0083 14.4573 69.4483 14.2188 66.8242 14.2738C66.4205 14.283 66.4755 14.494 66.4755 14.7142C66.4755 21.3205 66.4755 27.9176 66.4755 34.5239C66.4755 46.1307 66.4755 57.7284 66.4663 69.3352C66.4663 70.005 66.4663 70.6748 66.4663 71.3997C68.1179 71.4547 69.6869 71.4639 71.2284 71.0969C76.44 69.8674 79.9908 65.9862 79.9908 61.4077C80.0092 49.0668 80 36.7076 80 24.3576Z" fill="url(#paint3_linear)"/>
<path d="M44.2161 47.0667C44.2161 48.2503 44.2161 49.3697 44.2161 50.4983C44.2161 51.7736 44.2161 53.049 44.2161 54.3152C44.2161 55.0768 43.8307 55.4805 43.0783 55.4805C41.0047 55.4897 38.9311 55.4897 36.8574 55.4805C36.1693 55.4805 35.7839 55.0492 35.7839 54.3244C35.7839 52.0489 35.7839 49.7734 35.7839 47.4979C35.7839 47.3695 35.7839 47.2318 35.7839 47.0667C35.6096 47.0667 35.4811 47.0667 35.3435 47.0667C33.1047 47.0667 30.8567 47.0667 28.618 47.0667C27.7279 47.0667 27.3609 46.7088 27.3609 45.8188C27.3609 43.8461 27.3609 41.8734 27.3609 39.9007C27.3609 39.0015 27.7188 38.6437 28.6088 38.6437C30.8384 38.6437 33.068 38.6437 35.2976 38.6437C35.4444 38.6437 35.5821 38.6437 35.7747 38.6437C35.7747 38.4969 35.7747 38.3776 35.7747 38.2583C35.7747 35.9828 35.7747 33.7073 35.7747 31.4319C35.7747 30.5877 36.1509 30.2207 36.9951 30.2207C38.9678 30.2207 40.9405 30.2207 42.9132 30.2207C43.8399 30.2207 44.1977 30.5694 44.1977 31.5144C44.2069 33.7716 44.1977 36.0195 44.1977 38.2767C44.1977 38.3868 44.1977 38.4969 44.1977 38.6529C44.3445 38.6529 44.473 38.6529 44.5923 38.6529C46.8678 38.6529 49.1432 38.6529 51.4187 38.662C52.2537 38.662 52.6115 39.0291 52.6115 39.864C52.6115 41.8459 52.6115 43.8278 52.6115 45.8096C52.6115 46.718 52.2629 47.0667 51.3729 47.0667C49.1065 47.0667 46.8402 47.0667 44.5831 47.0758C44.4913 47.0667 44.3812 47.0667 44.2161 47.0667Z" fill="url(#paint4_linear)"/>
</g>
<defs>
<linearGradient id="paint0_linear" x1="13.2597" y1="42.8469" x2="66.473" y2="42.8469" gradientUnits="userSpaceOnUse">
<stop stop-color="#B0F4FF"/>
<stop offset="1" stop-color="#69DCFC"/>
</linearGradient>
<linearGradient id="paint1_linear" x1="-2.56858e-05" y1="42.8559" x2="13.2597" y2="42.8559" gradientUnits="userSpaceOnUse">
<stop stop-color="#6CBCFC"/>
<stop offset="1" stop-color="#458DFC"/>
</linearGradient>
<linearGradient id="paint2_linear" x1="20.9962" y1="7.28974" x2="58.0944" y2="7.28974" gradientUnits="userSpaceOnUse">
<stop stop-color="#6CBCFC"/>
<stop offset="1" stop-color="#458DFC"/>
</linearGradient>
<linearGradient id="paint3_linear" x1="66.4686" y1="42.8504" x2="80.0007" y2="42.8504" gradientUnits="userSpaceOnUse">
<stop stop-color="#6CBCFC"/>
<stop offset="1" stop-color="#458DFC"/>
</linearGradient>
<linearGradient id="paint4_linear" x1="27.3666" y1="42.8598" x2="52.6299" y2="42.8598" gradientUnits="userSpaceOnUse">
<stop stop-color="#6CBCFC"/>
<stop offset="1" stop-color="#458DFC"/>
</linearGradient>
<clipPath id="clip0">
<rect width="80" height="71.1549" fill="white" transform="translate(0 0.28125)"/>
</clipPath>
</defs>
</svg>
