<svg width="62" height="86" viewBox="0 0 62 86" fill="none" xmlns="http://www.w3.org/2000/svg">
<g clip-path="url(#clip0)">
<path d="M61.8574 26.7621L61.6657 66.5629L61.6338 74.2611C61.6018 80.3782 55.7882 85.3134 48.633 85.2814L12.889 85.1217C5.74972 85.0738 -0.0319332 80.0907 9.65492e-06 73.9577L0.22361 26.4586C0.239581 21.5075 4.07272 17.323 9.31135 15.9334L9.32733 13.378V12.0684L52.8814 12.276L52.8654 16.1411C58.0881 17.5945 61.8733 21.795 61.8574 26.7621Z" fill="url(#paint0_linear)"/>
<path d="M56.1236 2.05408V2.40545L56.0917 6.55803L56.0598 10.6307V11.1259C56.0598 11.8925 55.4209 12.5154 54.6543 12.5154H54.3189L52.2106 12.4994L49.8948 12.4834L47.7866 12.4675L45.4707 12.4515L43.3305 12.4195L41.0147 12.4036L38.9064 12.3876L36.5746 12.3716L34.4504 12.3557L32.1345 12.3397L30.0263 12.3077L27.7105 12.2918L25.6022 12.2758L23.2704 12.2598L21.1462 12.2439L18.8463 12.2279L16.7381 12.2119L14.4222 12.1959L12.298 12.18L9.98216 12.164L7.85796 12.148H7.52256C6.75593 12.148 6.13304 11.5092 6.13304 10.7425V10.7266V10.3752L6.19693 2.16588V1.67077C6.19693 0.904136 6.83578 0.28125 7.61839 0.28125H7.95379L12.3938 0.313193L16.8339 0.345136L18.9581 0.361107L21.274 0.377079L23.3822 0.39305L27.8063 0.440964L30.1221 0.456936L32.2304 0.472907L34.5462 0.488879L36.6545 0.50485L38.9703 0.520822L41.0786 0.536793L43.3944 0.552764L45.5026 0.568736L47.8504 0.600679L49.9587 0.61665L52.2745 0.632622L54.3987 0.648593H54.7341C55.5167 0.664565 56.1236 1.28745 56.1236 2.05408Z" fill="url(#paint1_linear)"/>
<path d="M56.1236 2.42156L56.0917 6.55816L56.0598 10.6309L54.1592 10.6149L51.6357 10.5989L49.3198 10.583H46.7804L44.4645 10.567L41.941 10.551L39.6251 10.5351H37.0857L34.7698 10.5191L32.2304 10.5031L29.9305 10.4871H27.391L25.0752 10.4712L22.5357 10.4552L20.2198 10.4392H17.6964L15.3805 10.4233L12.841 10.4073L10.5252 10.3913H8.0017L6.13304 10.3753L6.19693 2.16602L10.637 2.18199L15.4763 2.21393L17.7922 2.2299L20.3317 2.24587H22.6475L27.4869 2.27782L30.0263 2.29379H32.3422L34.8816 2.30976L37.1815 2.32573L39.721 2.3417H42.0368L44.5763 2.35767L46.8762 2.37364L49.4156 2.38962H51.7315L54.271 2.40559L56.1236 2.42156Z" fill="url(#paint2_linear)"/>
<path d="M61.8105 35.1655L0.176758 34.874L0.0475233 62.2011L61.6813 62.4926L61.8105 35.1655Z" fill="#F7F9FC"/>
<path d="M61.8215 35.1654L0.187668 34.874L0.164412 39.7932L61.7982 40.0846L61.8215 35.1654Z" fill="#FBFCF7"/>
<path d="M24.2127 45.8617L20.2358 45.8457L20.2518 41.8529L14.7736 41.8369L14.7576 45.8138L10.7807 45.7978L10.7488 51.2601L14.7257 51.276L14.7097 55.2689L20.1879 55.2849L20.2039 51.308L24.1808 51.3239L24.2127 45.8617Z" fill="url(#paint3_linear)"/>
<path d="M51.2364 47.1871L31.5276 47.0913C31.0006 47.0913 30.5693 46.6601 30.5693 46.133V45.6858C30.5693 45.1588 31.0006 44.7275 31.5276 44.7275L51.2364 44.8234C51.7634 44.8234 52.1947 45.2546 52.1947 45.7817V46.2289C52.1947 46.7559 51.7634 47.1871 51.2364 47.1871Z" fill="url(#paint4_linear)"/>
<path opacity="0.5" d="M51.2204 53.049L31.5116 52.9531C30.9846 52.9531 30.5534 52.5219 30.5534 51.9948V51.5476C30.5534 51.0206 30.9846 50.5894 31.5116 50.5894L51.2204 50.6852C51.7475 50.6852 52.1787 51.1164 52.1787 51.6435V52.0907C52.1787 52.6177 51.7475 53.049 51.2204 53.049Z" fill="url(#paint5_linear)"/>
<path opacity="0.08" d="M6.13304 2.05392V2.4053L6.16498 6.55787L6.19693 10.6146V11.1097C6.19693 11.8764 6.83578 12.4992 7.60241 12.4992H7.93781L10.062 12.4833L12.3779 12.4673L14.4861 12.4513L16.802 12.4354L18.9102 12.4194L21.226 12.4034L23.3343 12.3874L25.6501 12.3715L27.7743 12.3555L30.0902 12.3395L32.1984 12.3236L34.5143 12.3076L36.6225 12.2916L38.9384 12.2756L41.0626 12.2597L43.3784 12.2437L45.4867 12.2277L47.8025 12.2118L49.9108 12.1958L52.2266 12.1798L54.3508 12.1638H54.6862C55.4528 12.1638 56.0757 11.525 56.0757 10.7584V10.7424V10.391C31.3679 11.4611 7.52256 0.648438 7.52256 0.648438C6.75593 0.664409 6.13304 1.2873 6.13304 2.05392Z" fill="#1A6FB5"/>
</g>
<defs>
<linearGradient id="paint0_linear" x1="9.32815e-06" y1="11.6148" x2="57.1389" y2="90.4759" gradientUnits="userSpaceOnUse">
<stop stop-color="#6CBCFC"/>
<stop offset="1" stop-color="#458DFC"/>
</linearGradient>
<linearGradient id="paint1_linear" x1="-629.93" y1="-39.6498" x2="-27.6041" y2="2.30331" gradientUnits="userSpaceOnUse">
<stop stop-color="#B0F4FF"/>
<stop offset="0.0525488" stop-color="#A9F2FF"/>
<stop offset="0.2879" stop-color="#8DE8FE"/>
<stop offset="0.5247" stop-color="#79E1FD"/>
<stop offset="0.7618" stop-color="#6DDDFC"/>
<stop offset="1" stop-color="#69DCFC"/>
</linearGradient>
<linearGradient id="paint2_linear" x1="6.13994" y1="6.3945" x2="56.1258" y2="6.3945" gradientUnits="userSpaceOnUse">
<stop stop-color="#B0F4FF"/>
<stop offset="0.0525488" stop-color="#A9F2FF"/>
<stop offset="0.2879" stop-color="#8DE8FE"/>
<stop offset="0.5247" stop-color="#79E1FD"/>
<stop offset="0.7618" stop-color="#6DDDFC"/>
<stop offset="1" stop-color="#69DCFC"/>
</linearGradient>
<linearGradient id="paint3_linear" x1="21.9779" y1="43.3767" x2="12.5975" y2="54.1938" gradientUnits="userSpaceOnUse">
<stop stop-color="#6CBCFC"/>
<stop offset="1" stop-color="#458DFC"/>
</linearGradient>
<linearGradient id="paint4_linear" x1="52.3847" y1="45.9521" x2="28.8866" y2="45.9521" gradientUnits="userSpaceOnUse">
<stop stop-color="#6CBCFC"/>
<stop offset="1" stop-color="#458DFC"/>
</linearGradient>
<linearGradient id="paint5_linear" x1="30.5519" y1="51.8136" x2="52.179" y2="51.8136" gradientUnits="userSpaceOnUse">
<stop stop-color="#6CBCFC"/>
<stop offset="1" stop-color="#458DFC"/>
</linearGradient>
<clipPath id="clip0">
<rect width="61.8574" height="85" fill="white" transform="translate(0 0.28125)"/>
</clipPath>
</defs>
</svg>
