<svg width="92" height="90" viewBox="0 0 92 90" fill="none" xmlns="http://www.w3.org/2000/svg">
<g clip-path="url(#clip0)">
<path d="M56.2156 43.3154L47.1377 51.9804L8.8034 88.5663C7.79701 89.5291 6.50598 90.0105 5.21495 90.0105C3.80194 90.0105 2.38893 89.4369 1.36221 88.3C-0.660742 86.0672 -0.396437 82.5745 1.93148 80.6694L47.1377 43.8275L52.1189 39.7715L56.2156 43.3154Z" fill="url(#paint0_linear)"/>
<path d="M46.7413 52.4206L37.8058 60.9422L36.9823 52.185L41.872 48.2007L46.7413 52.4206Z" fill="#3A81D6" fill-opacity="0.8"/>
<path d="M91.978 29.9078C91.978 46.4288 78.6815 59.8259 62.2946 59.8259C51.9664 59.8259 42.8682 54.5101 37.5516 46.4391C34.4308 41.7071 32.6111 36.0225 32.6111 29.9078C32.6111 13.3868 45.9077 0 62.2946 0C69.6951 0 76.4552 2.72448 81.6498 7.23114C87.9728 12.7211 91.978 20.8433 91.978 29.9078Z" fill="url(#paint1_linear)"/>
<path d="M62.2946 53.2094C75.0671 53.2094 85.4213 42.777 85.4213 29.9079C85.4213 17.0389 75.0671 6.60645 62.2946 6.60645C49.5221 6.60645 39.1679 17.0389 39.1679 29.9079C39.1679 42.777 49.5221 53.2094 62.2946 53.2094Z" fill="white"/>
<path opacity="0.06" d="M91.978 29.9076C91.978 46.4286 78.6815 59.8257 62.2946 59.8257C51.9664 59.8257 42.8682 54.5099 37.5516 46.4389C71.0268 43.6939 79.8505 15.1176 81.66 7.23096C87.9728 12.7209 91.978 20.8431 91.978 29.9076Z" fill="#1A6FB5" fill-opacity="0.5"/>
<path d="M62.2946 29.9592C64.9783 29.9592 67.1537 27.7673 67.1537 25.0634C67.1537 22.3594 64.9783 20.1675 62.2946 20.1675C59.6109 20.1675 57.4354 22.3594 57.4354 25.0634C57.4354 27.7673 59.6007 29.9592 62.2946 29.9592ZM62.2946 32.4072C59.0518 32.4072 52.5763 34.0459 52.5763 37.303V38.5321C52.5763 39.2081 53.1252 39.7612 53.7962 39.7612H70.8133C71.4842 39.7612 72.0332 39.2081 72.0332 38.5321V37.303C72.0128 34.0562 65.5374 32.4072 62.2946 32.4072Z" fill="url(#paint2_linear)"/>
</g>
<defs>
<linearGradient id="paint0_linear" x1="5.67473" y1="84.3268" x2="53.9244" y2="40.7925" gradientUnits="userSpaceOnUse">
<stop stop-color="#67C3F3"/>
<stop offset="1" stop-color="#5A98F2"/>
</linearGradient>
<linearGradient id="paint1_linear" x1="50.0173" y1="2.11336" x2="72.7818" y2="52.9053" gradientUnits="userSpaceOnUse">
<stop stop-color="#67C3F3"/>
<stop offset="1" stop-color="#5A98F2"/>
</linearGradient>
<linearGradient id="paint2_linear" x1="55.2686" y1="28.3949" x2="72.9196" y2="36.9392" gradientUnits="userSpaceOnUse">
<stop stop-color="#B0F4FF"/>
<stop offset="0.071077" stop-color="#A6F1FF"/>
<stop offset="0.2937" stop-color="#8BE8FD"/>
<stop offset="0.5209" stop-color="#78E1FD"/>
<stop offset="0.7536" stop-color="#6DDDFC"/>
<stop offset="1" stop-color="#69DCFC"/>
</linearGradient>
<clipPath id="clip0">
<rect width="91.978" height="90" fill="white"/>
</clipPath>
</defs>
</svg>
