<svg width="70" height="95" viewBox="0 0 70 95" fill="none" xmlns="http://www.w3.org/2000/svg">
<g clip-path="url(#clip0)">
<path d="M69.4225 4.31029V90.7055C69.4225 93.0896 67.4963 95.0158 65.1122 95.0158H4.31029C1.92621 95 0 93.0738 0 90.7055V4.31029C0 1.92621 1.92621 0 4.31029 0H65.128C67.4963 0 69.4225 1.92621 69.4225 4.31029Z" fill="url(#paint0_linear)"/>
<path d="M65 7.94666V87.0533C65 89.2363 63.3075 91 61.2126 91H7.78735C5.69252 90.9855 4 89.2218 4 87.0533V7.94666C4 5.76371 5.69252 4 7.78735 4H61.2265C63.3075 4 65 5.76371 65 7.94666Z" fill="url(#paint1_linear)"/>
<path d="M26.8722 18.2516V22.183C26.8722 22.4672 26.6512 22.6882 26.367 22.6882H21.5515C21.2673 22.6882 21.0462 22.9093 21.0462 23.1935V28.009C21.0462 28.2932 20.8252 28.5142 20.541 28.5142H16.6096C16.3254 28.5142 16.1044 28.2932 16.1044 28.009V23.1935C16.1044 22.9093 15.8834 22.6882 15.5992 22.6882H10.7994C10.5152 22.6882 10.2942 22.4672 10.2942 22.183V18.2516C10.2942 17.9674 10.5152 17.7464 10.7994 17.7464H15.6149C15.8991 17.7464 16.1202 17.5254 16.1202 17.2412V12.4256C16.1202 12.1415 16.3412 11.9204 16.6254 11.9204H20.5568C20.841 11.9204 21.062 12.1415 21.062 12.4256V17.2412C21.062 17.5254 21.2831 17.7464 21.5673 17.7464H26.367C26.6512 17.7464 26.8722 17.9674 26.8722 18.2516Z" fill="url(#paint2_linear)"/>
<path opacity="0.5" d="M58.5757 39.6766H10.8468C10.531 39.6766 10.2784 39.424 10.2784 39.1082V37.2925C10.2784 36.9767 10.531 36.7241 10.8468 36.7241H58.5757C58.8915 36.7241 59.1441 36.9767 59.1441 37.2925V39.1082C59.1283 39.424 58.8915 39.6766 58.5757 39.6766Z" fill="url(#paint3_linear)"/>
<path d="M58.5757 17.0519H34.8928C34.577 17.0519 34.3244 16.7993 34.3244 16.4835V14.6836C34.3244 14.3679 34.577 14.1152 34.8928 14.1152H58.5757C58.8915 14.1152 59.1441 14.3679 59.1441 14.6836V16.4993C59.1283 16.7993 58.8915 17.0519 58.5757 17.0519Z" fill="url(#paint4_linear)"/>
<path opacity="0.5" d="M51.5656 24.7249H34.8928C34.577 24.7249 34.3244 24.4723 34.3244 24.1565V22.3408C34.3244 22.0251 34.577 21.7725 34.8928 21.7725H51.5656C51.8813 21.7725 52.1339 22.0251 52.1339 22.3408V24.1565C52.1182 24.4723 51.8813 24.7249 51.5656 24.7249Z" fill="url(#paint5_linear)"/>
<path opacity="0.5" d="M58.5757 48.2972H10.8468C10.531 48.2972 10.2784 48.0446 10.2784 47.7288V45.9131C10.2784 45.5973 10.531 45.3447 10.8468 45.3447H58.5757C58.8915 45.3447 59.1441 45.5973 59.1441 45.9131V47.7288C59.1283 48.0446 58.8915 48.2972 58.5757 48.2972Z" fill="url(#paint6_linear)"/>
<path opacity="0.5" d="M58.5757 56.9178H10.8468C10.531 56.9178 10.2784 56.6652 10.2784 56.3494V54.5337C10.2784 54.218 10.531 53.9653 10.8468 53.9653H58.5757C58.8915 53.9653 59.1441 54.218 59.1441 54.5337V56.3652C59.1283 56.6652 58.8915 56.9178 58.5757 56.9178Z" fill="url(#paint7_linear)"/>
<path opacity="0.5" d="M58.5757 65.5545H10.8468C10.531 65.5545 10.2784 65.3019 10.2784 64.9861V63.1704C10.2784 62.8547 10.531 62.6021 10.8468 62.6021H58.5757C58.8915 62.6021 59.1441 62.8547 59.1441 63.1704V64.9861C59.1283 65.3019 58.8915 65.5545 58.5757 65.5545Z" fill="url(#paint8_linear)"/>
<path opacity="0.5" d="M58.5757 74.1747H10.8468C10.531 74.1747 10.2784 73.9221 10.2784 73.6063V71.7906C10.2784 71.4748 10.531 71.2222 10.8468 71.2222H58.5757C58.8915 71.2222 59.1441 71.4748 59.1441 71.7906V73.6063C59.1283 73.9221 58.8915 74.1747 58.5757 74.1747Z" fill="url(#paint9_linear)"/>
<path opacity="0.5" d="M58.5757 82.7952H10.8468C10.531 82.7952 10.2784 82.5426 10.2784 82.2268V80.4112C10.2784 80.0954 10.531 79.8428 10.8468 79.8428H58.5757C58.8915 79.8428 59.1441 80.0954 59.1441 80.4112V82.2268C59.1283 82.5426 58.8915 82.7952 58.5757 82.7952Z" fill="url(#paint10_linear)"/>
<path opacity="0.1" d="M69.4225 4.31029V90.7055C69.4225 93.0896 67.4963 95.0158 65.1122 95.0158H4.31029C1.92621 95 0 93.0738 0 90.7055V89.2056C37.0874 73.8906 54.3601 15.1571 58.2599 0H65.1122C67.4963 0 69.4225 1.92621 69.4225 4.31029Z" fill="#1A6FB5" fill-opacity="0.4"/>
</g>
<defs>
<linearGradient id="paint0_linear" x1="95" y1="126" x2="-6" y2="-5.5" gradientUnits="userSpaceOnUse">
<stop offset="0.3061" stop-color="#5BA7FC"/>
<stop offset="1" stop-color="#69B8FC"/>
</linearGradient>
<linearGradient id="paint1_linear" x1="8.6241" y1="7.04564" x2="57.9385" y2="78.0313" gradientUnits="userSpaceOnUse">
<stop offset="0.3061" stop-color="white"/>
<stop offset="1" stop-color="white"/>
</linearGradient>
<linearGradient id="paint2_linear" x1="10" y1="9.50003" x2="25" y2="34" gradientUnits="userSpaceOnUse">
<stop stop-color="#B0F4FF"/>
<stop offset="0.368525" stop-color="#80E4FD"/>
<stop offset="1" stop-color="#6CDDFC"/>
</linearGradient>
<linearGradient id="paint3_linear" x1="10.2906" y1="38.2071" x2="59.1355" y2="38.2071" gradientUnits="userSpaceOnUse">
<stop stop-color="#6CBCFC"/>
<stop offset="1" stop-color="#458DFC"/>
</linearGradient>
<linearGradient id="paint4_linear" x1="34.3248" y1="15.5846" x2="59.1355" y2="15.5846" gradientUnits="userSpaceOnUse">
<stop stop-color="#6CBCFC"/>
<stop offset="1" stop-color="#458DFC"/>
</linearGradient>
<linearGradient id="paint5_linear" x1="34.3248" y1="23.2616" x2="52.1256" y2="23.2616" gradientUnits="userSpaceOnUse">
<stop stop-color="#6CBCFC"/>
<stop offset="1" stop-color="#458DFC"/>
</linearGradient>
<linearGradient id="paint6_linear" x1="10.2906" y1="46.8316" x2="59.1355" y2="46.8316" gradientUnits="userSpaceOnUse">
<stop stop-color="#6CBCFC"/>
<stop offset="1" stop-color="#458DFC"/>
</linearGradient>
<linearGradient id="paint7_linear" x1="10.2906" y1="55.4561" x2="59.1355" y2="55.4561" gradientUnits="userSpaceOnUse">
<stop stop-color="#6CBCFC"/>
<stop offset="1" stop-color="#458DFC"/>
</linearGradient>
<linearGradient id="paint8_linear" x1="10.2906" y1="64.0809" x2="59.1355" y2="64.0809" gradientUnits="userSpaceOnUse">
<stop stop-color="#6CBCFC"/>
<stop offset="1" stop-color="#458DFC"/>
</linearGradient>
<linearGradient id="paint9_linear" x1="10.2906" y1="72.705" x2="59.1355" y2="72.705" gradientUnits="userSpaceOnUse">
<stop stop-color="#6CBCFC"/>
<stop offset="1" stop-color="#458DFC"/>
</linearGradient>
<linearGradient id="paint10_linear" x1="10.2906" y1="81.3294" x2="59.1355" y2="81.3294" gradientUnits="userSpaceOnUse">
<stop stop-color="#6CBCFC"/>
<stop offset="1" stop-color="#458DFC"/>
</linearGradient>
<clipPath id="clip0">
<rect width="69.4225" height="95" fill="white"/>
</clipPath>
</defs>
</svg>
